<?xml version="1.0" standalone="no"?>
<!DOCTYPE svg PUBLIC "-//W3C//DTD SVG 20010904//EN"
 "http://www.w3.org/TR/2001/REC-SVG-20010904/DTD/svg10.dtd">
<svg version="1.0" xmlns="http://www.w3.org/2000/svg"
 width="502.000000pt" height="599.000000pt" viewBox="0 0 502.000000 599.000000"
 preserveAspectRatio="xMidYMid meet">

<g transform="translate(0.000000,599.000000) scale(0.100000,-0.100000)"
fill="#000000" stroke="none">
<path d="M0 2995 l0 -2995 2510 0 2510 0 0 2995 0 2995 -2510 0 -2510 0 0
-2995z m2592 2542 c95 -95 170 -147 314 -217 290 -142 615 -209 1049 -217 288
-6 451 6 654 48 53 10 99 19 104 19 4 0 7 -771 7 -1712 l0 -1713 -30 -118
c-71 -281 -226 -500 -468 -661 -205 -136 -416 -205 -982 -321 -371 -76 -439
-105 -714 -299 -8 -6 -44 13 -108 58 -194 134 -294 172 -655 246 -674 139
-890 225 -1124 447 -166 159 -258 326 -319 583 -20 84 -20 115 -20 1798 0
1627 1 1713 18 1708 39 -11 234 -45 332 -58 158 -20 612 -17 770 5 344 48 667
155 870 289 36 23 99 77 140 118 41 42 76 77 77 78 1 1 39 -35 85 -81z"/>
<path d="M2450 5318 c-169 -185 -527 -328 -955 -384 -268 -35 -671 -20 -923
35 l-82 18 0 -1563 0 -1563 30 -117 c32 -123 86 -250 141 -331 46 -68 172
-196 249 -253 181 -134 399 -208 920 -315 124 -26 259 -58 300 -71 94 -31 221
-99 311 -164 l68 -50 78 56 c94 67 223 134 316 163 37 11 168 41 290 66 616
128 813 207 1030 414 144 137 230 296 282 516 l25 105 0 1546 0 1546 -22 -5
c-184 -46 -481 -72 -718 -64 -402 15 -726 94 -1006 245 -77 42 -211 149 -244
196 -14 20 -27 35 -30 35 -3 -1 -30 -28 -60 -61z m328 -308 c89 0 162 -3 162
-7 0 -5 -58 -50 -129 -101 l-129 -92 50 -151 c28 -82 48 -153 45 -156 -3 -3
-62 36 -131 87 -70 51 -132 90 -139 87 -8 -3 -67 -44 -132 -91 -65 -48 -120
-84 -123 -81 -3 3 17 72 43 155 27 82 47 151 44 153 -2 2 -59 43 -127 92 -67
48 -125 92 -128 96 -3 5 69 9 160 9 l164 0 47 143 c26 78 49 149 52 157 3 8
29 -56 57 -142 l51 -158 163 0z m-1728 -701 c14 -26 5 -37 -18 -23 -12 8 -22
8 -34 0 -23 -14 -32 -2 -18 23 6 12 21 21 35 21 14 0 29 -9 35 -21z m601 -1
c9 -17 9 -23 0 -26 -6 -2 -1 -12 14 -24 23 -18 25 -26 25 -103 0 -101 -16
-129 -74 -129 -60 0 -71 20 -71 125 0 82 2 92 23 109 13 11 18 21 12 25 -16
10 12 45 37 45 13 0 27 -9 34 -22z m679 1 c14 -26 5 -37 -18 -23 -12 8 -22 8
-34 0 -23 -14 -32 -2 -18 23 6 12 21 21 35 21 14 0 29 -9 35 -21z m595 0 c9
-27 -1 -35 -21 -18 -13 11 -18 11 -21 2 -5 -13 -33 -19 -33 -7 0 41 63 61 75
23z m667 -4 c6 -14 15 -25 20 -25 5 0 8 -12 6 -27 -2 -23 -8 -29 -35 -31 -25
-2 -33 -8 -33 -23 0 -14 7 -19 30 -19 25 0 30 -4 30 -25 0 -21 -5 -25 -30 -25
-25 0 -30 -4 -30 -25 0 -22 4 -25 35 -25 31 0 35 -3 35 -25 0 -24 -2 -25 -65
-25 l-65 0 0 125 c0 69 4 125 8 125 5 0 14 11 20 25 8 17 20 25 37 25 17 0 29
-8 37 -25z m-2862 -45 c17 -17 20 -33 20 -109 0 -54 -4 -93 -11 -97 -6 -3 -8
-17 -5 -30 6 -21 3 -24 -19 -24 -14 0 -28 7 -31 15 -4 8 -13 15 -22 15 -8 0
-24 7 -34 17 -15 13 -18 32 -18 105 0 100 15 128 70 128 17 0 39 -9 50 -20z
m100 -69 c0 -93 6 -125 21 -115 5 3 9 50 9 105 l0 99 30 0 30 0 0 -101 c0 -55
-5 -109 -11 -120 -27 -51 -109 -43 -128 13 -12 34 -15 191 -4 201 3 4 17 7 30
7 22 0 23 -2 23 -89z m366 27 l19 -63 3 63 c3 62 3 63 30 60 l27 -3 3 -122 3
-123 -35 0 c-34 0 -36 1 -55 63 l-19 62 -1 -62 -1 -63 -30 0 -30 0 0 125 0
125 34 0 c32 0 34 -2 52 -62z m306 45 c15 -13 18 -32 18 -106 0 -113 -10 -127
-87 -127 l-53 0 0 45 c0 25 -6 54 -12 65 -10 16 -10 24 0 40 6 11 12 38 12 60
l0 40 52 0 c34 0 58 -6 70 -17z m268 -108 l0 -125 -30 0 -30 0 0 125 0 125 30
0 30 0 0 -125z m186 63 l19 -63 3 63 c3 62 3 63 30 60 l27 -3 0 -120 0 -120
-34 0 c-33 0 -35 2 -52 60 l-17 60 -1 -62 -1 -63 -30 0 -30 0 0 125 0 125 34
0 c32 0 34 -2 52 -62z m164 17 c0 -57 18 -59 22 -2 3 38 6 42 31 45 l27 3 0
-125 0 -126 -30 0 c-29 0 -30 1 -30 50 0 28 -4 50 -10 50 -5 0 -10 -22 -10
-50 0 -49 -1 -50 -30 -50 l-30 0 0 125 0 125 30 0 c29 0 30 -2 30 -45z m358
-17 l20 -63 1 63 1 62 30 0 30 0 0 -125 0 -125 -34 0 c-33 0 -35 2 -54 63
l-20 62 -1 -62 -1 -63 -30 0 -30 0 0 118 c0 65 3 122 7 125 3 4 19 7 34 7 25
0 29 -6 47 -62z m302 42 c17 -17 20 -33 20 -103 0 -112 -11 -127 -91 -127
l-59 0 0 125 0 125 55 0 c42 0 60 -5 75 -20z m291 -35 l17 -50 3 50 c4 46 6
50 32 53 l27 3 0 -126 0 -126 -32 3 c-30 3 -34 8 -49 58 l-17 55 -1 -57 c-1
-58 -1 -58 -31 -58 l-30 0 0 126 0 125 32 -3 c28 -3 33 -9 49 -53z m239 -10
c5 -55 6 -57 13 -25 3 19 8 46 9 60 2 19 10 26 31 28 33 4 33 0 9 -143 l-17
-100 -38 -3 c-20 -2 -37 0 -37 5 0 4 -7 49 -15 98 -8 50 -15 103 -15 118 0 25
3 28 28 25 25 -3 27 -7 32 -63z m150 -60 l0 -125 -30 0 -30 0 0 118 c0 65 3
122 7 125 3 4 17 7 30 7 23 0 23 -1 23 -125z m300 95 c0 -20 -5 -30 -15 -30
-12 0 -15 -17 -15 -95 l0 -95 -30 0 -30 0 0 94 c0 85 -2 94 -20 99 -14 3 -20
14 -20 31 0 25 2 26 65 26 l65 0 0 -30z m171 -30 l17 -55 4 55 c3 52 5 55 31
58 l27 3 0 -126 0 -126 -32 3 c-30 3 -34 8 -49 58 l-17 55 -1 -57 c-1 -58 -1
-58 -31 -58 l-30 0 0 126 0 125 32 -3 c30 -3 34 -8 49 -58z m230 -30 c33 -166
33 -160 0 -160 -21 0 -32 6 -36 20 -3 11 -12 20 -20 20 -8 0 -17 -9 -20 -20
-4 -14 -15 -20 -36 -20 -24 0 -29 4 -25 18 3 9 12 60 21 112 21 126 19 122 62
118 l37 -3 17 -85z m139 55 c0 -44 18 -46 22 -2 3 31 5 32 51 35 l47 3 0 -125
0 -126 -30 0 -30 0 -1 68 -1 67 -9 -45 c-5 -25 -12 -55 -15 -67 -3 -14 -12
-23 -24 -23 -14 0 -21 9 -26 38 -15 90 -22 99 -23 30 l-1 -68 -30 0 -30 0 0
118 c0 65 3 122 7 125 3 4 26 7 50 7 43 0 43 0 43 -35z m-3229 -69 c10 -49 20
-102 23 -117 5 -27 4 -29 -29 -29 -28 0 -35 4 -35 20 0 13 -7 20 -20 20 -13 0
-20 -7 -20 -20 0 -16 -7 -20 -31 -20 -27 0 -30 3 -26 23 3 12 14 66 23 120
l17 98 41 -3 41 -3 16 -89z m1283 -3 c9 -54 20 -108 23 -120 4 -20 1 -23 -25
-23 -22 0 -32 6 -37 20 -3 11 -12 20 -20 20 -8 0 -17 -9 -20 -20 -9 -27 -69
-29 -61 -2 2 9 12 58 21 107 21 119 19 115 63 115 l39 0 17 -97z m581 75 c3
-13 13 -67 23 -120 l19 -98 -34 0 c-26 0 -33 4 -33 20 0 13 -7 20 -20 20 -13
0 -20 -7 -20 -20 0 -16 -7 -20 -30 -20 -16 0 -30 3 -30 7 0 3 10 57 21 120
l21 113 39 0 c32 0 40 -4 44 -22z m-1295 -258 c0 -15 -7 -20 -25 -20 -18 0
-25 5 -25 20 0 15 7 20 25 20 18 0 25 -5 25 -20z m1940 0 c0 -15 -7 -20 -25
-20 -18 0 -25 5 -25 20 0 15 7 20 25 20 18 0 25 -5 25 -20z m-2539 -182 c19
-114 17 -331 -3 -383 l-16 -40 67 65 c64 63 173 132 187 118 15 -16 -78 -216
-138 -296 l-39 -53 49 36 c27 19 52 35 55 35 14 0 -49 -205 -86 -281 l-42 -85
59 48 c88 71 89 70 51 -71 -35 -129 -78 -216 -139 -277 -55 -54 -133 -110
-142 -102 -6 7 30 152 56 222 11 28 33 73 50 99 l29 47 -54 -45 c-30 -24 -64
-49 -76 -56 -21 -11 -21 -10 -15 27 13 68 74 241 102 286 14 24 40 58 58 77
l31 34 -41 -29 c-22 -16 -64 -40 -93 -54 l-52 -24 -49 54 -49 55 24 -60 c30
-76 77 -237 71 -243 -10 -9 -105 60 -155 113 -29 30 -65 83 -81 117 -31 68
-84 241 -78 258 4 14 102 -53 153 -107 l43 -44 -23 48 c-31 66 -45 139 -52
268 l-6 110 43 -40 c53 -51 98 -116 120 -173 l17 -45 5 114 c4 83 11 129 26
167 24 63 99 192 111 192 5 0 15 -37 22 -82z m3000 2 c65 -106 81 -162 88
-289 6 -113 6 -114 20 -75 19 53 71 130 120 179 l41 39 0 -84 c-1 -105 -21
-221 -49 -286 l-22 -49 53 51 c50 49 125 104 140 104 13 0 -43 -186 -81 -265
-40 -86 -97 -150 -177 -204 -26 -17 -51 -31 -55 -31 -12 0 39 178 72 250 l29
65 -54 -60 -55 -60 -67 34 c-37 19 -81 46 -98 60 -20 17 -13 6 18 -29 27 -30
62 -83 78 -118 26 -58 78 -230 78 -260 0 -14 -75 33 -124 77 l-28 26 29 -45
c16 -25 39 -67 50 -95 26 -64 68 -223 60 -231 -8 -8 -94 53 -144 102 -23 23
-55 69 -71 101 -47 92 -105 293 -85 293 4 0 32 -18 61 -40 29 -22 54 -40 57
-40 2 0 -7 19 -21 43 -27 47 -80 204 -90 268 l-7 42 46 -32 c26 -18 47 -30 47
-27 0 3 -16 27 -36 52 -19 26 -44 64 -54 85 -25 48 -80 186 -80 200 0 22 128
-59 193 -121 37 -36 67 -65 67 -64 0 1 -7 21 -15 45 -26 73 -29 181 -10 327
10 77 22 131 28 129 5 -1 27 -32 48 -67z m-2386 -366 c64 -203 132 -293 400
-534 105 -93 192 -175 193 -180 2 -6 -5 -10 -15 -10 -27 0 -418 354 -472 426
-63 86 -110 185 -137 292 -27 108 -28 115 -12 110 6 -2 25 -49 43 -104z m1650
94 c31 -14 31 -19 1 -47 l-24 -23 -17 26 c-14 21 -15 29 -5 41 15 18 13 18 45
3z m73 -40 c2 -8 -12 -22 -30 -32 -18 -10 -42 -30 -52 -45 l-20 -26 24 20 c23
20 23 20 16 0 -4 -11 -4 -16 0 -12 8 7 34 -10 34 -23 0 -7 -114 -100 -123
-100 -13 0 -16 34 -5 49 8 10 3 8 -11 -4 -22 -18 -24 -18 -18 -2 5 14 3 16
-11 8 -9 -5 -28 -22 -42 -37 -15 -18 -18 -23 -6 -14 18 14 19 13 13 -3 -4 -10
-3 -16 2 -13 5 3 15 -1 22 -10 14 -17 6 -26 -60 -71 -22 -16 -24 -16 -37 2 -8
10 -14 15 -14 10 0 -5 7 -17 17 -27 11 -13 13 -24 7 -38 -7 -15 -188 -169
-332 -283 -11 -8 -19 -5 -33 13 -11 14 -17 18 -14 9 4 -12 -17 -36 -73 -83
-44 -36 -85 -66 -90 -66 -21 0 -24 21 -6 41 9 10 13 19 9 19 -4 0 0 10 11 23
l19 22 -22 -19 c-13 -10 -20 -22 -18 -26 3 -4 -2 -13 -10 -20 -13 -10 -19 -9
-35 5 -11 10 -20 25 -20 33 0 12 3 12 20 -3 11 -10 17 -23 13 -29 -3 -6 0 -6
7 1 11 10 11 16 -4 32 -17 18 -13 22 106 117 148 118 575 465 673 546 70 58
87 65 93 36z m-1315 -362 c358 -317 359 -318 340 -339 -16 -20 -16 -20 0 -8 9
8 20 12 22 9 5 -4 -80 -83 -163 -151 -37 -30 -76 -40 -48 -12 8 8 19 15 25 15
14 0 52 51 46 61 -3 4 4 13 15 19 22 12 27 1 8 -20 -7 -8 6 1 29 20 23 19 42
39 42 44 1 5 -10 -1 -23 -13 -14 -13 -30 -20 -36 -16 -6 4 -18 1 -26 -6 -12
-10 -20 -7 -42 13 -15 14 -101 92 -192 172 -176 157 -255 241 -309 330 -38 63
-78 159 -88 208 l-6 33 24 -21 c13 -12 185 -164 382 -338z m1357 311 c0 -7 -5
-19 -10 -27 -8 -13 -11 -12 -24 5 -20 26 -20 33 2 38 21 4 32 -1 32 -16z m-58
-14 c18 -16 25 -43 10 -43 -14 0 -53 46 -45 53 9 10 14 9 35 -10z m-152 -150
c21 -27 22 -44 4 -50 -13 -4 -56 55 -49 67 10 16 22 12 45 -17z m-2519 -231
c58 -43 111 -112 143 -184 27 -60 78 -239 71 -246 -9 -9 -105 61 -154 113 -29
30 -65 83 -81 117 -29 62 -80 226 -80 255 0 17 19 7 101 -55z m3713 -34 c-28
-104 -84 -231 -117 -267 -12 -13 14 2 57 33 43 31 80 55 82 53 2 -2 -8 -46
-22 -98 -30 -107 -72 -207 -110 -256 l-25 -33 38 26 c45 30 128 74 142 74 12
0 -28 -99 -77 -195 -47 -91 -136 -180 -225 -224 -37 -19 -70 -31 -73 -28 -10
9 75 193 117 252 42 60 41 60 -35 6 l-49 -35 7 44 c12 77 68 232 103 283 40
60 42 69 6 35 -31 -28 -104 -78 -115 -78 -9 0 37 169 64 233 28 68 66 122 120
173 43 41 116 94 130 94 3 0 -5 -42 -18 -92z m-3651 -298 c50 -57 98 -157 131
-279 14 -52 24 -96 22 -98 -1 -2 -28 15 -59 37 -32 22 -57 37 -57 34 0 -3 11
-20 25 -37 27 -36 125 -235 125 -254 0 -18 -4 -17 -80 23 -94 49 -142 93 -194
177 -47 76 -113 224 -103 233 7 7 102 -41 145 -73 l32 -24 -38 59 c-40 61 -95
212 -108 292 l-7 43 63 -43 c34 -25 80 -65 103 -90z m1720 30 c8 -11 16 -18
19 -15 3 3 13 -4 23 -15 10 -11 13 -20 7 -20 -6 0 -16 8 -21 18 -7 11 -10 13
-11 3 0 -11 -3 -11 -16 -1 -8 8 -20 22 -25 32 -13 25 6 24 24 -2z m-1243 -7
c0 -5 -11 -49 -24 -99 -30 -109 -64 -189 -108 -250 -32 -46 -152 -144 -175
-144 -8 0 -4 29 14 93 53 193 100 273 211 357 66 49 82 57 82 43z m1230 -42
c0 -12 -6 -9 -20 9 -26 33 -26 48 0 25 11 -10 20 -25 20 -34z m1396 -6 c112
-80 171 -176 214 -346 11 -46 23 -92 27 -103 5 -18 4 -18 -28 0 -67 38 -168
144 -198 208 -37 77 -99 286 -85 286 4 0 35 -20 70 -45z m-1434 18 c18 -16 24
-33 11 -33 -10 1 -46 50 -37 50 4 0 16 -7 26 -17z m-152 -17 c0 -17 -24 -38
-33 -29 -15 15 -6 43 13 43 11 0 20 -6 20 -14z m125 -6 c17 -19 15 -50 -3 -50
-17 0 -44 39 -39 55 8 20 20 19 42 -5z m117 -10 c-2 -9 4 -8 21 3 24 16 27 14
211 -150 102 -91 186 -169 186 -174 0 -4 -24 -34 -53 -65 l-52 -56 -170 152
c-94 84 -183 165 -200 181 l-30 30 40 35 c22 20 35 33 28 30 -17 -9 -28 15
-12 25 18 11 35 5 31 -11z m-162 -35 c11 -20 11 -28 2 -37 -16 -16 -57 23 -49
46 9 24 32 19 47 -9z m106 -4 c-8 -13 -36 -15 -36 -3 0 4 5 13 12 20 14 14 34
0 24 -17z m-156 -30 c13 -25 13 -34 0 -26 -16 10 -32 45 -21 45 6 0 15 -9 21
-19z m114 10 c8 -12 -21 -34 -34 -26 -8 5 -8 11 1 21 13 16 25 18 33 5z m-124
-55 c-1 -6 -10 0 -20 13 -11 13 -20 28 -20 35 1 6 10 0 20 -13 11 -13 20 -28
20 -35z m-30 -18 c0 -16 3 -17 21 -8 11 7 23 9 26 6 7 -7 -17 -37 -26 -32 -3
2 -14 -6 -23 -19 -27 -36 5 -26 48 14 25 25 32 37 24 46 -14 17 16 43 32 27 8
-8 8 -13 -3 -17 -15 -6 -18 -42 -5 -63 18 -29 -52 -88 -76 -64 -7 7 -18 12
-26 12 -7 0 -29 15 -49 33 -32 31 -34 36 -23 58 7 13 19 32 28 42 14 16 16 16
34 1 10 -10 18 -26 18 -36z m359 -143 l204 -184 46 52 c115 129 116 130 144
123 32 -8 43 -40 26 -73 -12 -22 -11 -27 8 -41 12 -10 102 -89 202 -176 209
-184 212 -189 166 -281 -19 -41 -38 -62 -69 -80 -49 -29 -110 -33 -143 -10
-26 18 -47 77 -39 109 5 19 -17 42 -144 154 l-150 132 -20 -20 c-26 -26 -55
-26 -74 1 -15 22 -12 43 10 69 11 13 -14 39 -172 180 -102 91 -194 175 -206
187 -18 19 -18 44 0 42 4 0 99 -83 211 -184z m-453 128 c-4 -11 4 -28 26 -50
24 -25 29 -36 20 -45 -12 -12 -33 -5 -75 27 -18 13 -17 15 5 49 25 39 34 46
24 19z m-913 -90 c-21 -113 -56 -216 -93 -273 -31 -48 -124 -140 -164 -162
-17 -9 -18 -7 -11 38 22 147 76 290 136 359 36 41 125 115 139 115 4 0 1 -35
-7 -77z m2596 -10 c52 -52 87 -97 104 -135 27 -57 77 -243 77 -286 l0 -23 -32
23 c-64 44 -136 126 -167 186 -30 59 -81 242 -81 290 0 12 5 22 10 22 6 0 46
-35 89 -77z m-1695 6 c35 -21 36 -21 20 -51 -16 -31 -16 -105 0 -141 7 -15 -2
-22 -51 -44 -66 -29 -52 -9 -190 -270 -41 -79 -79 -146 -85 -149 -10 -7 -198
175 -198 192 0 15 341 329 376 347 22 11 38 33 57 76 15 34 29 61 31 61 3 0
21 -9 40 -21z m-857 -256 c-10 -193 -44 -284 -144 -391 l-54 -57 5 125 c7 143
16 191 53 267 23 47 125 173 140 173 3 0 3 -53 0 -117z m2476 50 c99 -112 126
-191 133 -378 l5 -130 -55 59 c-68 74 -101 133 -121 217 -19 80 -32 293 -18
288 5 -2 30 -27 56 -56z m-3099 -7 c90 -32 160 -80 216 -146 54 -66 145 -208
137 -216 -6 -7 -119 32 -171 58 -77 39 -198 178 -265 306 -16 29 -1 29 83 -2z
m3756 7 c0 -3 -29 -49 -64 -102 -73 -109 -150 -188 -222 -224 -52 -27 -155
-60 -162 -53 -5 6 100 168 145 223 46 56 125 109 208 138 72 25 95 30 95 18z
m-3046 -317 l1 -154 24 59 c14 32 28 59 32 59 10 0 58 -157 73 -239 l12 -64
13 67 c7 36 17 69 22 72 12 7 104 -185 122 -256 l15 -55 7 68 c4 37 11 67 16
67 18 0 142 -202 165 -268 18 -52 24 -88 24 -162 0 -52 -3 -105 -6 -116 -13
-48 -223 -88 -334 -65 -70 15 -253 84 -257 97 -2 6 25 20 59 31 l63 21 -40 1
c-78 2 -348 93 -328 111 11 10 100 39 154 49 l44 9 -48 1 c-27 1 -82 12 -123
26 -84 28 -234 101 -234 113 0 11 89 32 165 39 82 7 177 -17 303 -77 56 -27
102 -47 102 -44 0 2 -14 52 -31 111 -24 82 -31 130 -32 199 l-2 91 -17 -38
c-24 -55 -98 -160 -107 -154 -14 8 -22 235 -12 299 17 98 121 289 145 266 5
-5 10 -79 10 -164z m2338 52 c41 -66 68 -167 68 -250 0 -85 -12 -218 -20 -218
-11 0 -88 114 -109 162 l-19 43 5 -56 c7 -67 -9 -161 -43 -271 -14 -44 -24
-81 -22 -83 2 -2 42 16 89 39 168 82 256 98 390 72 46 -10 87 -21 92 -25 9 -9
-190 -105 -262 -125 -30 -9 -77 -17 -105 -17 l-51 -1 47 -8 c53 -9 149 -39
161 -50 19 -17 -212 -98 -303 -107 l-65 -6 62 -21 c34 -12 64 -24 67 -27 8 -8
-163 -75 -244 -95 -83 -21 -192 -14 -279 18 -59 21 -66 26 -74 58 -5 19 -7 78
-5 131 3 90 7 103 45 180 23 46 66 118 95 159 l53 75 7 -40 c4 -22 7 -56 8
-75 0 -29 5 -20 30 52 36 107 97 231 110 223 5 -3 15 -32 22 -65 6 -33 13 -58
15 -56 2 1 7 27 13 57 14 78 62 229 72 229 4 0 8 -1 8 -2 0 -2 10 -28 23 -58
l22 -55 1 135 c0 75 4 149 8 165 l8 30 21 -29 c12 -15 39 -55 59 -88z m-1939
-151 c55 -49 57 -53 43 -72 -14 -19 -19 -16 -120 85 -100 99 -105 105 -89 123
16 17 19 16 63 -33 25 -29 71 -75 103 -103z m-1020 109 c41 -8 95 -25 119 -37
61 -31 157 -110 223 -185 l56 -64 -33 0 c-57 0 -170 29 -226 57 -54 27 -204
160 -243 214 l-20 29 24 0 c14 0 59 -6 100 -14z m3607 -5 c0 -21 -211 -210
-261 -235 -80 -39 -249 -71 -249 -48 0 5 46 54 103 109 66 64 122 109 158 126
82 41 249 73 249 48z m-3395 -276 c59 -17 148 -69 245 -145 65 -51 68 -55 47
-63 -34 -13 -177 -1 -239 21 -64 22 -143 71 -235 145 l-65 52 38 6 c51 9 146
1 209 -16z m3265 7 l44 -7 -64 -51 c-98 -78 -188 -133 -244 -149 -62 -19 -184
-30 -221 -21 -23 6 -25 9 -13 23 26 33 174 137 234 165 82 38 178 53 264 40z
m-1655 -311 c-7 -54 -8 -53 66 -66 34 -6 36 -5 54 34 10 23 21 41 25 41 12 0
119 -61 126 -71 3 -6 -5 -27 -19 -48 l-26 -38 34 -33 34 -33 39 26 c21 15 41
27 45 27 5 0 43 -55 81 -117 5 -9 -8 -20 -39 -35 -33 -16 -44 -26 -39 -38 22
-51 18 -59 -40 -85 -31 -14 -60 -25 -64 -25 -4 0 -15 22 -25 49 -24 67 -104
153 -175 188 -51 25 -68 28 -157 28 -95 0 -103 -2 -163 -34 -74 -40 -125 -94
-160 -171 -14 -30 -26 -56 -27 -58 -3 -3 -116 45 -123 52 -2 2 4 21 12 41 9
21 16 39 16 41 0 2 -18 13 -40 24 -22 11 -40 25 -40 31 0 6 19 37 41 70 45 63
42 63 96 16 22 -19 22 -19 52 4 36 29 36 33 13 67 -10 15 -22 32 -26 39 -4 7
17 25 57 47 35 20 67 36 70 36 4 0 17 -19 29 -43 l23 -43 48 13 47 14 0 50 0
49 81 0 81 0 -7 -49z m62 -269 c79 -41 146 -116 167 -189 6 -19 1 -23 -50 -34
-54 -12 -58 -12 -68 6 -39 71 -124 125 -196 125 -63 0 -152 -63 -173 -122 -7
-21 -22 -22 -83 -7 -39 10 -44 14 -38 33 27 89 105 166 203 203 54 20 185 12
238 -15z m-59 -152 c18 -11 41 -34 52 -52 18 -31 19 -33 2 -40 -21 -8 -229
-10 -259 -2 -13 4 -23 10 -23 15 0 14 63 81 84 89 39 16 110 11 144 -10z"/>
<path d="M1605 4290 c-3 -5 1 -10 10 -10 9 0 13 5 10 10 -3 6 -8 10 -10 10 -2
0 -7 -4 -10 -10z"/>
<path d="M1605 4218 c-9 -24 -1 -143 10 -143 13 0 19 135 6 148 -7 7 -12 5
-16 -5z"/>
<path d="M3545 4290 c-3 -5 1 -10 10 -10 9 0 13 5 10 10 -3 6 -8 10 -10 10 -2
0 -7 -4 -10 -10z"/>
<path d="M670 4150 c0 -47 4 -80 10 -80 6 0 10 33 10 80 0 47 -4 80 -10 80 -6
0 -10 -33 -10 -80z"/>
<path d="M1434 4219 c-3 -6 0 -22 7 -36 10 -19 10 -28 1 -43 -17 -27 -15 -60
3 -60 12 0 15 15 15 75 0 69 -9 91 -26 64z"/>
<path d="M2710 4156 c0 -62 3 -76 15 -76 13 0 15 12 13 72 -2 46 -7 73 -15 76
-10 3 -13 -16 -13 -72z"/>
<path d="M4098 4160 c-2 -24 1 -40 7 -40 6 0 9 16 7 40 -2 22 -5 40 -7 40 -2
0 -5 -18 -7 -40z"/>
<path d="M1009 4160 c-7 -35 -4 -48 7 -38 3 4 4 21 2 40 l-3 33 -6 -35z"/>
<path d="M2290 4155 c0 -19 4 -35 8 -35 4 0 6 16 4 35 -2 19 -6 35 -8 35 -2 0
-4 -16 -4 -35z"/>
<path d="M2886 4157 c-5 -15 -6 -31 -2 -34 11 -11 18 5 14 34 l-4 28 -8 -28z"/>
<path d="M990 3718 c0 -25 3 -29 10 -18 13 20 13 50 0 50 -5 0 -10 -15 -10
-32z"/>
<path d="M740 3541 c0 -11 5 -23 10 -26 6 -3 10 3 10 14 0 11 -4 23 -10 26 -5
3 -10 -3 -10 -14z"/>
<path d="M1180 3461 c-13 -25 -13 -34 0 -26 16 10 32 45 21 45 -6 0 -15 -9
-21 -19z"/>
<path d="M640 3303 c0 -5 7 -18 15 -29 12 -16 14 -16 15 -3 0 9 -7 22 -15 29
-8 7 -15 8 -15 3z"/>
<path d="M940 3242 l-24 -37 -7 30 c-5 24 -7 18 -8 -26 0 -31 2 -59 6 -62 3
-4 19 23 34 60 16 37 28 68 26 69 -1 1 -13 -14 -27 -34z"/>
<path d="M1122 3169 c-7 -12 -11 -24 -7 -27 7 -8 25 17 25 36 0 17 -3 15 -18
-9z"/>
<path d="M1130 2900 c-6 -12 -9 -24 -7 -27 3 -2 11 5 17 17 6 12 9 24 7 27 -3
2 -11 -5 -17 -17z"/>
<path d="M4008 3735 c-6 -25 6 -66 14 -44 2 8 2 25 -2 39 -6 23 -7 23 -12 5z"/>
<path d="M4257 3537 c-4 -10 -7 -26 -7 -35 1 -15 2 -15 11 1 6 10 9 25 7 35
-3 16 -4 15 -11 -1z"/>
<path d="M3810 3451 c10 -21 30 -37 30 -26 0 14 -21 45 -31 45 -6 0 -6 -7 1
-19z"/>
<path d="M4350 3280 c-6 -12 -9 -24 -7 -27 3 -2 11 5 17 17 6 12 9 24 7 27 -3
2 -11 -5 -17 -17z"/>
<path d="M4071 3198 c16 -39 32 -74 34 -77 3 -2 5 25 4 60 -1 44 -3 56 -8 39
-8 -25 -8 -25 -30 13 -13 20 -25 37 -26 37 -2 0 9 -32 26 -72z"/>
<path d="M3870 3169 c0 -9 7 -22 15 -29 19 -16 19 0 0 26 -12 16 -14 16 -15 3z"/>
<path d="M3860 2903 c0 -5 7 -18 15 -29 12 -16 14 -16 15 -3 0 9 -7 22 -15 29
-8 7 -15 8 -15 3z"/>
<path d="M3234 3368 l-19 -23 23 19 c21 18 27 26 19 26 -2 0 -12 -10 -23 -22z"/>
<path d="M3259 3363 c-13 -16 -12 -17 4 -4 16 13 21 21 13 21 -2 0 -10 -8 -17
-17z"/>
<path d="M3069 3233 l-24 -28 28 24 c25 23 32 31 24 31 -2 0 -14 -12 -28 -27z"/>
<path d="M3094 3228 l-19 -23 23 19 c12 11 22 21 22 23 0 8 -8 2 -26 -19z"/>
<path d="M2999 3183 c-13 -16 -12 -17 4 -4 16 13 21 21 13 21 -2 0 -10 -8 -17
-17z"/>
<path d="M2944 3138 l-19 -23 23 19 c12 11 22 21 22 23 0 8 -8 2 -26 -19z"/>
<path d="M2884 3088 l-19 -23 23 19 c21 18 27 26 19 26 -2 0 -12 -10 -23 -22z"/>
<path d="M2824 3038 l-19 -23 23 19 c21 18 27 26 19 26 -2 0 -12 -10 -23 -22z"/>
<path d="M2769 2993 c-13 -16 -12 -17 4 -4 16 13 21 21 13 21 -2 0 -10 -8 -17
-17z"/>
<path d="M2664 2898 l-19 -23 23 19 c21 18 27 26 19 26 -2 0 -12 -10 -23 -22z"/>
<path d="M2604 2848 l-19 -23 23 19 c21 18 27 26 19 26 -2 0 -12 -10 -23 -22z"/>
<path d="M2609 2823 c-13 -16 -12 -17 4 -4 16 13 21 21 13 21 -2 0 -10 -8 -17
-17z"/>
<path d="M650 3013 c0 -5 7 -18 15 -29 12 -16 14 -16 15 -3 0 9 -7 22 -15 29
-8 7 -15 8 -15 3z"/>
<path d="M4340 2990 c-6 -12 -9 -24 -7 -27 3 -2 11 5 17 17 6 12 9 24 7 27 -3
2 -11 -5 -17 -17z"/>
<path d="M4340 2710 c-6 -12 -9 -24 -7 -27 3 -2 11 5 17 17 6 12 9 24 7 27 -3
2 -11 -5 -17 -17z"/>
<path d="M4357 2442 c-19 -20 -23 -37 -7 -27 10 6 33 45 27 45 -2 0 -11 -8
-20 -18z"/>
<path d="M650 2731 c0 -5 7 -14 15 -21 16 -14 18 -10 9 14 -6 17 -24 22 -24 7z"/>
<path d="M640 2451 c10 -21 30 -37 30 -26 0 14 -21 45 -31 45 -6 0 -6 -7 1
-19z"/>
<path d="M1146 2628 c-16 -22 -15 -35 2 -24 9 5 24 46 17 46 -2 0 -11 -10 -19
-22z"/>
<path d="M3852 2615 c6 -14 15 -25 19 -25 5 0 3 11 -3 25 -6 14 -15 25 -19 25
-5 0 -3 -11 3 -25z"/>
<path d="M1190 2400 c-6 -12 -9 -24 -7 -27 3 -2 11 5 17 17 6 12 9 24 7 27 -3
2 -11 -5 -17 -17z"/>
<path d="M3800 2403 c0 -5 7 -18 15 -29 12 -16 14 -16 15 -3 0 9 -7 22 -15 29
-8 7 -15 8 -15 3z"/>
<path d="M1247 2177 c-4 -10 -7 -26 -7 -35 1 -15 2 -15 11 1 6 10 9 25 7 35
-3 16 -4 15 -11 -1z"/>
<path d="M3750 2168 c0 -7 5 -20 10 -28 8 -12 10 -11 10 7 0 12 -4 25 -10 28
-5 3 -10 0 -10 -7z"/>
<path d="M685 2150 c10 -11 23 -20 28 -20 6 0 2 9 -8 20 -10 11 -23 20 -28 20
-6 0 -2 -9 8 -20z"/>
<path d="M4310 2145 c-20 -24 -6 -28 15 -5 10 11 13 20 8 20 -6 0 -16 -7 -23
-15z"/>
<path d="M1338 1964 c-5 -4 -8 -19 -8 -33 1 -23 2 -24 11 -8 11 19 9 53 -3 41z"/>
<path d="M1436 1751 c-4 -5 -2 -20 3 -33 9 -21 10 -21 10 10 1 32 -3 39 -13
23z"/>
<path d="M1581 1588 c-1 -15 4 -30 9 -33 12 -7 12 12 0 40 -8 18 -9 17 -9 -7z"/>
<path d="M1501 1423 c-7 -27 -22 -68 -34 -93 -21 -43 -25 -46 -91 -62 -83 -21
-93 -28 -38 -28 45 0 168 -36 257 -75 31 -14 55 -22 53 -18 -1 4 -20 44 -42
88 -46 94 -76 179 -76 212 0 39 -15 26 -29 -24z"/>
<path d="M1750 1424 c0 -5 7 -19 15 -30 8 -10 15 -14 15 -8 0 5 -7 19 -15 30
-8 10 -15 14 -15 8z"/>
<path d="M985 1360 c28 -12 47 -12 40 0 -3 6 -18 10 -33 9 -24 0 -25 -1 -7 -9z"/>
<path d="M1700 1310 c-1 -19 -9 -66 -18 -105 l-17 -69 -64 -22 -65 -22 40 -7
c84 -14 133 -27 214 -60 46 -19 86 -33 87 -31 2 1 -22 41 -53 87 -61 91 -90
148 -110 219 l-12 45 -2 -35z"/>
<path d="M1195 1170 c27 -12 35 -12 35 0 0 6 -12 10 -27 9 -25 0 -26 -1 -8 -9z"/>
<path d="M1433 1013 c9 -2 25 -2 35 0 9 3 1 5 -18 5 -19 0 -27 -2 -17 -5z"/>
<path d="M3661 1948 c0 -7 4 -22 9 -33 8 -18 9 -17 9 7 1 15 -3 30 -9 33 -5 3
-10 0 -9 -7z"/>
<path d="M3560 1724 c0 -14 4 -23 10 -19 6 3 10 15 10 26 0 10 -4 19 -10 19
-5 0 -10 -12 -10 -26z"/>
<path d="M3417 1577 c-11 -29 -9 -43 4 -30 6 6 9 19 7 29 -3 18 -4 18 -11 1z"/>
<path d="M3476 1406 c-9 -38 -39 -115 -65 -171 l-49 -103 67 27 c107 45 172
64 236 71 l60 6 -78 18 -79 18 -25 55 c-14 31 -31 77 -38 102 l-11 46 -18 -69z"/>
<path d="M3247 1414 c-4 -4 -7 -17 -7 -28 1 -19 1 -20 11 -3 11 19 8 43 -4 31z"/>
<path d="M3985 1350 c-7 -12 12 -12 40 0 18 8 17 9 -7 9 -15 1 -30 -3 -33 -9z"/>
<path d="M3297 1294 c-8 -51 -62 -159 -121 -244 -25 -35 -44 -66 -42 -67 2 -2
35 10 75 27 74 30 156 54 226 66 l40 6 -63 21 c-70 24 -71 25 -96 162 l-12 70
-7 -41z"/>
<path d="M3780 1160 c0 -13 20 -13 40 0 12 8 9 10 -12 10 -16 0 -28 -4 -28
-10z"/>
<path d="M3543 1003 c9 -2 25 -2 35 0 9 3 1 5 -18 5 -19 0 -27 -2 -17 -5z"/>
<path d="M754 1865 c11 -8 25 -15 30 -15 6 0 2 7 -8 15 -11 8 -25 15 -30 15
-6 0 -2 -7 8 -15z"/>
<path d="M4234 1855 c-16 -12 -16 -14 -3 -15 9 0 22 7 29 15 16 19 0 19 -26 0z"/>
<path d="M854 1605 c11 -8 27 -15 35 -15 10 1 7 6 -9 15 -33 19 -50 18 -26 0z"/>
<path d="M4135 1595 c-25 -11 -27 -14 -9 -14 12 -1 27 6 34 14 15 18 14 18
-25 0z"/>
</g>
</svg>
